<?xml version="1.0" encoding="UTF-8"?>
<svg id="Layer_1" data-name="Layer 1" xmlns="http://www.w3.org/2000/svg" viewBox="0 0 800 800">
  <defs>
    <style>
      .cls-1 {
        fill: none;
      }

      .cls-2 {
        fill: #1400c6;
      }
    </style>
  </defs>
  <path class="cls-2" d="M633.33,166.67v466.67H166.67V166.67h466.67M633.33,100H166.67c-36.82,0-66.67,29.85-66.67,66.67v466.67c0,36.82,29.85,66.67,66.67,66.67h466.67c36.82,0,66.67-29.85,66.67-66.67V166.67c0-36.82-29.85-66.67-66.67-66.67Z"/>
  <rect class="cls-1" width="800" height="800"/>
  <g>
    <path class="cls-2" d="M381,529.67l-19-63h-95.33l-19,62.33h-60l92.33-262.33h66.67l92.67,263h-58.33ZM347.67,420.67c-17.67-56.33-27.33-88.33-29.67-95.67s-3.67-13.33-4.67-17.67c-4,15.33-15.33,53-33.33,113.33h67.67Z"/>
    <path class="cls-2" d="M530.67,533.33c-27.77,1.55-55.01-8.05-75.67-26.67-18.97-20.47-28.73-47.81-27-75.67-1.83-28.12,7.11-55.89,25-77.67,18.07-18.95,43.52-29.06,69.67-27.67,24.67-1.73,48.91,7.12,66.67,24.33,16.52,18.14,25.05,42.17,23.67,66.67v26.33h-129.67c-.45,13.45,4.47,26.52,13.67,36.33,9.6,9.29,22.66,14.13,36,13.33,11.23,0,22.42-1.34,33.33-4,11.54-2.69,22.73-6.71,33.33-12v42.33c-9.75,4.79-20.05,8.37-30.67,10.67-12.62,2.52-25.46,3.75-38.33,3.67ZM523,364.67c-10.33-.78-20.43,3.29-27.33,11-7.15,8.77-11.15,19.69-11.33,31h76.67c.5-11.31-3.31-22.39-10.67-31-7.07-7.47-17.06-11.49-27.33-11h0Z"/>
  </g>
</svg>