<?xml version="1.0" encoding="UTF-8"?>
<svg id="Layer_1" data-name="Layer 1" xmlns="http://www.w3.org/2000/svg" viewBox="0 0 800 800">
  <defs>
    <style>
      .cls-1 {
        fill: none;
      }

      .cls-2 {
        fill: #1400c6;
      }
    </style>
  </defs>
  <path class="cls-2" d="M633.33,166.67v466.67H166.67V166.67h466.67M633.33,100H166.67c-36.82,0-66.67,29.85-66.67,66.67v466.67c0,36.82,29.85,66.67,66.67,66.67h466.67c36.82,0,66.67-29.85,66.67-66.67V166.67c0-36.82-29.85-66.67-66.67-66.67Z"/>
  <g>
    <path class="cls-2" d="M410,539.33l-19-62.33h-95.67l-19,62.33h-59.67l92.33-263h66.67l92.67,263h-58.33ZM376.67,430.33c-17.67-56.33-27.33-88.33-29.67-95.67s-3.67-13.33-4.67-17.67c-4,15.33-15.33,53.33-33.33,113.33h67.67Z"/>
    <path class="cls-2" d="M496,287.33c0-17.67,10-26.67,29.67-26.67s29.67,9,29.67,26.67c.51,7.31-2.16,14.48-7.33,19.67-6.14,5.38-14.2,8.03-22.33,7.33-19.67,0-29.67-9-29.67-27ZM553,539.33h-53v-200h54.67l-1.67,200Z"/>
  </g>
  <rect class="cls-1" width="800" height="800"/>
</svg>