<?xml version="1.0" encoding="UTF-8"?>
<svg id="Layer_1" data-name="Layer 1" xmlns="http://www.w3.org/2000/svg" viewBox="0 0 800 800">
  <defs>
    <style>
      .cls-1 {
        fill: #1400c6;
        fill-rule: evenodd;
      }
    </style>
  </defs>
  <path class="cls-1" d="M147.5,471.18c-8.67,20.83-13.52,43.05-14.3,65.6,1.2,13.91,5.94,27.27,13.78,38.82,14.74,17.07,32.48,31.31,52.32,42.02l128.2,85.35c15.78,12.55,33.51,22.42,52.5,29.2,12.33,2.93,25.17,2.93,37.5,0,19.11-6.7,36.99-16.49,52.93-29l129.57-85.4c20.05-10.74,37.98-25.04,52.93-42.2,7.89-11.61,12.63-25.08,13.75-39.07-.85-22.73-5.82-45.12-14.67-66.07l-113.32-356.65c-2.53-11.55-7.1-22.56-13.5-32.5-4.66-5.66-10.68-10.05-17.5-12.75-11.39-3.09-23.24-4.12-35-3.05h-147.55c-11.76-1.07-23.62-.01-35,3.12-6.83,2.69-12.86,7.1-17.5,12.8-6.37,9.94-10.9,20.95-13.37,32.5l-111.75,357.3v-.02ZM478.5,141.18c5.27,8.38,9,17.63,11.02,27.32l97.3,319.6c-36.55-18.96-75.77-32.22-116.32-39.32l-63.22-214c-1.34-4.37-5.97-6.82-10.34-5.48-.89.27-1.73.7-2.48,1.25-1.43,1.04-2.47,2.53-2.98,4.22l-62.5,213.93c-40.74,7.09-80.15,20.41-116.85,39.48l97.7-319.6c2-9.71,5.74-18.98,11.05-27.35,3.87-4.75,8.87-8.45,14.55-10.75,9.56-2.58,19.51-3.43,29.38-2.5h69.83c9.87-.93,19.83-.09,29.4,2.5,5.69,2.31,10.71,6.03,14.58,10.8l-.1-.1ZM403.18,526.5c30.09,1.74,59.92-6.36,85-23.08,5.76,18.13,3.89,37.83-5.18,54.55-9.22,15.68-22.61,28.49-38.67,37.03-16.85,10.7-31.35,20-31.35,44.68-.02,7.92,1.77,15.73,5.22,22.85-23.24-9.65-38.38-32.34-38.37-57.5v-1.53c0-17.08,0-38.1-24.05-38.1-3.35,0-6.67.65-9.77,1.92-6.24,2.58-11.2,7.54-13.8,13.78-1.29,3.1-1.96,6.42-1.98,9.78-16.48-18-25.34-41.7-24.7-66.1-.12-10.56,1.36-21.08,4.38-31.2,10,18.92,48,33,93.27,33v-.08Z"/>
</svg>