<?xml version="1.0" encoding="UTF-8"?>
<svg id="Layer_1" data-name="Layer 1" xmlns="http://www.w3.org/2000/svg" viewBox="0 0 115.28 122.88">
  <defs>
    <style>
      .cls-1 {
        fill: #1400c6;
        fill-rule: evenodd;
      }
    </style>
  </defs>
  <path class="cls-1" d="M21.69,57h68.56v-19.66h-20.66c-2.17,0-5.19-1.17-6.62-2.6-1.43-1.43-2.3-4.01-2.3-6.17V7.64H8.15c-.18,0-.32.09-.41.18-.15.1-.19.23-.19.42v106.45c0,.14.09.32.18.41.09.14.28.18.41.18h81.51c.18,0,.17-.09.27-.18.14-.09.33-.28.33-.41v-11.16H21.69c-4.14,0-7.56-3.4-7.56-7.56v-31.42c0-4.15,3.4-7.55,7.56-7.55h0ZM47.36,82.07l6.42,1.94c-.43,1.8-1.11,3.3-2.04,4.51s-2.07,2.12-3.45,2.73c-1.37.61-3.12.92-5.25.92-2.58,0-4.68-.38-6.32-1.12-1.63-.75-3.04-2.07-4.23-3.95-1.19-1.88-1.78-4.3-1.78-7.23,0-3.92,1.04-6.93,3.13-9.04,2.09-2.1,5.04-3.16,8.86-3.16,2.98,0,5.33.6,7.04,1.81,1.7,1.21,2.98,3.06,3.81,5.57l-6.45,1.43c-.23-.72-.46-1.24-.71-1.57-.41-.56-.92-.99-1.51-1.29-.6-.3-1.26-.45-1.99-.45-1.67,0-2.94.67-3.82,2-.67.99-1,2.54-1,4.66,0,2.63.4,4.42,1.2,5.4.8.97,1.92,1.46,3.37,1.46s2.46-.39,3.18-1.18c.7-.8,1.21-1.95,1.54-3.44h0ZM56.12,83.93l6.95-.44c.15,1.13.46,1.99.92,2.57.76.95,1.83,1.43,3.23,1.43,1.04,0,1.85-.24,2.41-.73.57-.49.85-1.06.85-1.7s-.26-1.16-.8-1.65-1.78-.94-3.74-1.37c-3.21-.72-5.49-1.68-6.86-2.87-1.38-1.19-2.07-2.71-2.07-4.57,0-1.21.35-2.36,1.06-3.44.71-1.09,1.77-1.94,3.18-2.55,1.42-.62,3.36-.93,5.83-.93,3.03,0,5.33.56,6.92,1.69,1.59,1.13,2.53,2.92,2.84,5.38l-6.88.41c-.18-1.08-.57-1.86-1.15-2.34-.59-.49-1.4-.73-2.43-.73-.85,0-1.5.18-1.93.54s-.65.8-.65,1.32c0,.38.18.71.52,1.02s1.15.6,2.44.87c3.2.69,5.49,1.39,6.87,2.1,1.38.71,2.39,1.58,3.02,2.63.63,1.04.94,2.21.94,3.51,0,1.52-.42,2.92-1.26,4.2-.84,1.28-2.01,2.26-3.52,2.92-1.51.66-3.4.99-5.7.99-4.03,0-6.82-.78-8.37-2.33-1.54-1.57-2.42-3.54-2.62-5.93h0ZM80.08,83.93l6.95-.44c.15,1.13.46,1.99.92,2.57.76.95,1.83,1.43,3.23,1.43,1.04,0,1.85-.24,2.41-.73.57-.49.85-1.06.85-1.7s-.27-1.16-.8-1.65c-.54-.49-1.78-.94-3.74-1.37-3.21-.72-5.49-1.68-6.86-2.87-1.38-1.19-2.07-2.71-2.07-4.57,0-1.21.35-2.36,1.06-3.44.71-1.09,1.77-1.94,3.18-2.55,1.42-.62,3.36-.93,5.83-.93,3.03,0,5.33.56,6.92,1.69,1.59,1.13,2.53,2.92,2.84,5.38l-6.88.41c-.18-1.08-.57-1.86-1.15-2.34-.59-.49-1.4-.73-2.43-.73-.85,0-1.49.18-1.93.54-.43.36-.65.8-.65,1.32,0,.38.18.71.52,1.02s1.15.6,2.44.87c3.2.69,5.49,1.39,6.87,2.1,1.38.71,2.39,1.58,3.02,2.63.63,1.04.94,2.21.94,3.51,0,1.52-.42,2.92-1.26,4.2-.84,1.28-2.01,2.26-3.52,2.92-1.51.66-3.4.99-5.7.99-4.03,0-6.82-.78-8.37-2.33-1.54-1.57-2.41-3.54-2.62-5.93h0ZM97.79,57h9.93c4.16,0,7.56,3.41,7.56,7.56v31.42c0,4.15-3.41,7.56-7.56,7.56h-9.93v13.55c0,1.61-.65,3.04-1.7,4.1-1.06,1.06-2.49,1.7-4.1,1.7H5.81c-1.61,0-3.04-.64-4.1-1.7S.01,118.7.01,117.09V5.85C.01,4.24.66,2.81,1.71,1.75,2.77.69,4.24.05,5.81.05h58.72c.13-.05.27-.05.41-.05.64,0,1.29.28,1.75.69h.09c.09.05.14.09.23.18l29.99,30.36c.51.51.88,1.2.88,1.98,0,.23-.05.41-.09.65v23.14h0ZM67.52,27.97V8.94l21.43,21.7h-18.76c-.74,0-1.38-.32-1.89-.78-.46-.46-.78-1.15-.78-1.89h0Z"/>
</svg>