<?xml version="1.0" encoding="UTF-8"?>
<svg id="Layer_1" data-name="Layer 1" xmlns="http://www.w3.org/2000/svg" viewBox="0 0 800 800">
  <defs>
    <style>
      .cls-1 {
        fill: #1400c6;
        fill-rule: evenodd;
      }
    </style>
  </defs>
  <path class="cls-1" d="M373.34,109.33h-78.67c-43.45,0-78.67,35.22-78.67,78.67s35.22,78.67,78.67,78.67h78.67V109.33ZM373.34,56h132c72.9,0,132,59.1,132,132,0,43.02-20.58,81.24-52.43,105.33,31.86,24.1,52.43,62.31,52.43,105.33,0,72.9-59.09,132-132,132-29.48,0-56.7-9.66-78.67-25.99v104.66c0,72.9-59.1,132-132,132s-132-59.1-132-132c0-43.02,20.58-81.24,52.43-105.33-31.85-24.1-52.43-62.31-52.43-105.33s20.58-81.24,52.43-105.33c-31.85-24.1-52.43-62.31-52.43-105.33,0-72.9,59.1-132,132-132h78.67ZM426.67,109.33v157.33h78.67c43.45,0,78.66-35.22,78.66-78.67s-35.22-78.67-78.66-78.67h-78.67ZM294.67,477.33h78.67v-157.33h-78.67c-43.45,0-78.67,35.22-78.67,78.67s35.05,78.5,78.35,78.67h.31ZM216,609.33c0-43.34,35.05-78.5,78.35-78.67h.31s78.67,0,78.67,0v78.67c0,43.45-35.22,78.67-78.67,78.67s-78.67-35.22-78.67-78.67ZM426.67,398.51c.08-43.37,35.27-78.51,78.67-78.51s78.66,35.22,78.66,78.67-35.22,78.67-78.66,78.67-78.58-35.14-78.67-78.51v-.31Z"/>
</svg>