<?xml version="1.0" encoding="UTF-8"?>
<svg xmlns="http://www.w3.org/2000/svg" viewBox="0 0 211.03 210.67">
  <defs>
    <style>
      .cls-1 {
        fill: #1400c6;
      }
    </style>
  </defs>
  <g id="Layer_1" data-name="Layer 1">
    <path class="cls-1" d="M105.94.25c-.67-1.95-.37,8.27-.29,9.2,1.42,11.79,7,56.29,20.86,75.97,6.9,6.2,41.49,17.02,63.57,20.82,7.47,1.32,14.88,1.67,20.85-1.07.9-.41-5.11-1.57-5.47-1.74C141.89,80.1,134.36,71.3,105.94.25h0Z"/>
    <path class="cls-1" d="M105.09.25c.67-1.95.37,8.27.29,9.2-1.42,11.79-7,56.29-20.86,75.97-6.9,6.2-41.49,17.02-63.57,20.82-7.47,1.32-14.88,1.67-20.85-1.07-.9-.41,5.11-1.57,5.47-1.74C69.13,80.1,76.66,71.3,105.09.25h0Z"/>
    <path class="cls-1" d="M105.09,210.42c.67,1.95.37-8.27.29-9.2-1.42-11.79-7-56.29-20.86-75.97-6.9-6.2-41.49-17.02-63.57-20.82-7.47-1.32-14.88-1.67-20.85,1.07-.9.41,5.11,1.57,5.47,1.74,63.57,23.33,71.1,32.14,99.53,103.19h0Z"/>
    <path class="cls-1" d="M105.94,210.42c-.67,1.95-.37-8.27-.29-9.2,1.42-11.79,7-56.29,20.86-75.97,6.9-6.2,41.49-17.02,63.57-20.82,7.47-1.32,14.88-1.67,20.85,1.07.9.41-5.11,1.57-5.47,1.74-63.57,23.33-71.1,32.14-99.53,103.19h0Z"/>
  </g>
  <g id="Layer_2" data-name="Layer 2">
    <polygon class="cls-1" points="105.65 9.45 84.51 85.42 25.79 105.33 84.51 125.25 105.38 201.22 126.52 125.25 185.24 105.33 122.89 71.47 105.65 9.45"/>
  </g>
</svg>