<?xml version="1.0" encoding="UTF-8"?>
<svg id="Layer_1" data-name="Layer 1" xmlns="http://www.w3.org/2000/svg" viewBox="0 0 800 800">
  <defs>
    <style>
      .cls-1 {
        fill: #1400c6;
      }
    </style>
  </defs>
  <path class="cls-1" d="M256.99,236.28c40.38-20.72,68.01-62.77,68.01-111.28C325,55.96,269.04,0,200,0s-125,55.96-125,125c0,51.26,30.85,95.31,75,114.6v320.8c-44.15,19.29-75,63.34-75,114.6,0,69.04,55.96,125,125,125s125-55.96,125-125c0-51.26-30.85-95.31-75-114.6v-189.69l104.29,104.29h131.11c19.29,44.15,63.34,75,114.6,75,69.04,0,125-55.96,125-125s-55.96-125-125-125c-51.26,0-95.31,30.85-114.6,75h-89.69l-138.72-138.72Z"/>
</svg>