<svg width="144" height="136" viewBox="0 0 144 136" fill="none" xmlns="http://www.w3.org/2000/svg">
<g opacity="0.68" filter="url(#filter0_di_88_5)">
<path d="M62.1779 118.636C60.8026 117.826 61.144 113.733 61.8661 112.135C64.5017 104.65 71.5914 99.3608 77.1023 93.5752C88.9971 81.6967 105.218 73.0739 113.949 58.7733C120.602 46.3719 117.861 34.4673 103.13 28.8615C92.5682 24.9619 82.193 31.6464 75.6154 38.7689C69.1133 45.6299 62.4306 52.3928 54.225 57.626C55.0226 53.2362 56.1517 48.8561 57.5466 44.5807C63.261 20.9218 93.566 1.75744 116.745 20.206C135.904 33.0879 132.966 59.8357 118.15 74.6461C108.838 83.9979 96.9795 90.7608 86.0694 98.4194C80.1974 102.822 74.3747 107.33 69.1362 112.357C67.4984 113.697 64.2752 116.168 62.1779 118.64V118.636Z" fill="#1900FF"/>
<path d="M63.8879 116.231C63.3857 116.94 61.9317 118.574 61.6855 118.09C60.7238 116.198 59.9591 114.243 58.7151 112.105C58.6888 112.06 58.6626 112.011 58.6396 111.962C51.6845 97.8964 34.9155 89.6789 26.0338 76.7381C15.8621 63.1926 10.1707 45.6888 15.6947 29.6166C18.0218 20.9153 24.6027 12.2271 34.3904 9.55004C40.4691 7.92223 46.7218 11.8087 48.8519 16.934C47.2338 20.0328 43.2032 21.0493 39.7404 22.8111C32.1749 26.8709 28.6694 32.6336 27.3631 39.4456C25.3182 50.6703 31.2361 61.7283 37.7973 70.9264C46.8695 82.9323 59.8114 93.0293 64.5772 107.32C65.6472 110.605 67.7314 110.791 63.8879 116.234V116.231Z" fill="#1900FF"/>
</g>
<defs>
<filter id="filter0_di_88_5" x="-3" y="-4.4" width="150" height="144.4" filterUnits="userSpaceOnUse" color-interpolation-filters="sRGB">
<feFlood flood-opacity="0" result="BackgroundImageFix"/>
<feColorMatrix in="SourceAlpha" type="matrix" values="0 0 0 0 0 0 0 0 0 0 0 0 0 0 0 0 0 0 127 0" result="hardAlpha"/>
<feOffset dy="4"/>
<feGaussianBlur stdDeviation="6.5"/>
<feColorMatrix type="matrix" values="0 0 0 0 0.635294 0 0 0 0 0.901961 0 0 0 0 0.937255 0 0 0 1 0"/>
<feBlend mode="normal" in2="BackgroundImageFix" result="effect1_dropShadow_88_5"/>
<feBlend mode="normal" in="SourceGraphic" in2="effect1_dropShadow_88_5" result="shape"/>
<feColorMatrix in="SourceAlpha" type="matrix" values="0 0 0 0 0 0 0 0 0 0 0 0 0 0 0 0 0 0 127 0" result="hardAlpha"/>
<feOffset dx="6" dy="-10"/>
<feGaussianBlur stdDeviation="4.7"/>
<feComposite in2="hardAlpha" operator="arithmetic" k2="-1" k3="1"/>
<feColorMatrix type="matrix" values="0 0 0 0 0.831373 0 0 0 0 0.811765 0 0 0 0 1 0 0 0 0.78 0"/>
<feBlend mode="normal" in2="shape" result="effect2_innerShadow_88_5"/>
</filter>
</defs>
</svg>
