<svg width="156" height="164" viewBox="0 0 156 164" fill="none" xmlns="http://www.w3.org/2000/svg">
<g opacity="0.66" filter="url(#filter0_di_39_18)">
<path d="M51.072 146.644C41.391 145.268 37.2692 135.6 37.9901 127.856C38.4056 121.493 42.1118 115.75 46.1446 110.623C50.2409 104.829 56.5635 100.611 63.9589 98.6188C57.895 94.5239 51.4537 90.0595 43.5875 89.3714C35.1362 95.8322 23.2755 94.5324 13.8319 90.5607C19.2682 87.4981 25.4806 85.731 31.078 82.919C56.3048 71.0931 62.4663 57.0414 64.9258 33.0075C65.8968 26.5126 64.6798 19.9965 64.947 13.5059C65.1802 9.67436 70.3027 7.70339 72.9615 11.1908C74.9503 13.5993 74.2422 16.7979 74.5178 19.5972C74.6111 23.7006 75.3913 27.7657 76.3158 31.7799C80.1789 43.8691 86.3361 65.2057 101.424 69.2283C115.49 73.5823 123.466 59.4372 131.548 51.9314C136.824 45.6531 144.499 49.336 142.387 56.536C140.551 59.9639 136.908 62.3937 134.262 65.3374C125.887 74.9968 119.378 86.3767 119.925 98.8057C119.929 98.7165 119.934 98.6443 119.934 98.5636C119.853 106.758 121.062 115.083 124.653 122.691C127.477 126.824 131.374 130.532 133.312 135.065C134.703 138.595 131.099 143.654 126.638 141.339C120.426 137.388 118.649 130.133 113.543 125.282C104.753 116.536 92.9725 109.022 79.6022 107.318C83.4356 115.427 82.808 124.981 78.8898 132.975C73.7969 141.691 62.5129 148.713 51.072 146.644ZM55.6899 137.949C72.2025 136.692 79.0594 119.17 71.6342 107.31C66.4948 108.198 61.1984 109.761 57.1911 112.832C52.8573 116.799 49.0748 121.523 47.0648 126.769C45.1056 132.597 47.8238 138.773 55.6899 137.949ZM83.6858 97.5229C93.9563 98.9501 102.73 104.158 110.931 109.489C109.68 99.4131 109.769 89.2779 113.212 79.6227C91.0515 84.308 77.8211 64.8616 71.9226 48.9749C69.3613 62.6315 62.8267 75.8591 50.3215 84.6733C58.6032 87.12 66.3845 91.5037 72.6308 96.8602C76.32 96.5076 80.0644 96.8857 83.6858 97.5229Z" fill="#1900FF"/>
</g>
<defs>
<filter id="filter0_di_39_18" x="-1" y="-3" width="160" height="170" filterUnits="userSpaceOnUse" color-interpolation-filters="sRGB">
<feFlood flood-opacity="0" result="BackgroundImageFix"/>
<feColorMatrix in="SourceAlpha" type="matrix" values="0 0 0 0 0 0 0 0 0 0 0 0 0 0 0 0 0 0 127 0" result="hardAlpha"/>
<feOffset dy="4"/>
<feGaussianBlur stdDeviation="6.5"/>
<feColorMatrix type="matrix" values="0 0 0 0 0.635294 0 0 0 0 0.901961 0 0 0 0 0.937255 0 0 0 1 0"/>
<feBlend mode="normal" in2="BackgroundImageFix" result="effect1_dropShadow_39_18"/>
<feBlend mode="normal" in="SourceGraphic" in2="effect1_dropShadow_39_18" result="shape"/>
<feColorMatrix in="SourceAlpha" type="matrix" values="0 0 0 0 0 0 0 0 0 0 0 0 0 0 0 0 0 0 127 0" result="hardAlpha"/>
<feOffset dx="6" dy="1"/>
<feGaussianBlur stdDeviation="3.45"/>
<feComposite in2="hardAlpha" operator="arithmetic" k2="-1" k3="1"/>
<feColorMatrix type="matrix" values="0 0 0 0 0.831373 0 0 0 0 0.811765 0 0 0 0 1 0 0 0 0.78 0"/>
<feBlend mode="normal" in2="shape" result="effect2_innerShadow_39_18"/>
</filter>
</defs>
</svg>
