<?xml version="1.0" encoding="UTF-8"?>
<svg id="Layer_1" data-name="Layer 1" xmlns="http://www.w3.org/2000/svg" viewBox="0 0 800 800">
  <defs>
    <style>
      .cls-1 {
        fill: none;
      }

      .cls-2 {
        fill: #1400c6;
      }
    </style>
  </defs>
  <path class="cls-2" d="M633.33,166.67v466.67H166.67V166.67h466.67M633.33,100H166.67c-36.82,0-66.67,29.85-66.67,66.67v466.67c0,36.82,29.85,66.67,66.67,66.67h466.67c36.82,0,66.67-29.85,66.67-66.67V166.67c0-36.82-29.85-66.67-66.67-66.67Z"/>
  <rect class="cls-1" width="800" height="800"/>
  <g>
    <path class="cls-2" d="M261.33,537.33v-261.67h55.33v261.67h-55.33Z"/>
    <path class="cls-2" d="M427,541c-21.88.85-42.71-9.44-55.33-27.33-14.53-22.58-21.54-49.19-20-76-1.63-27.08,5.5-53.96,20.33-76.67,13.13-18.01,34.4-28.27,56.67-27.33,23-.83,44.8,10.26,57.67,29.33h1.67c-2.49-13.19-3.83-26.58-4-40v-64h54.67v278.33h-42l-10.33-25.67h-2.33c-12.18,19.49-34.06,30.75-57,29.33ZM446.33,497.67c11.6.99,22.98-3.59,30.67-12.33,7.61-12.4,11.33-26.8,10.67-41.33v-6c1.29-15.99-2.19-31.99-10-46-7.92-10.15-20.54-15.45-33.33-14-11.45-.1-22.15,5.69-28.33,15.33-7.5,13.76-10.96,29.36-10,45-1.1,15.44,2.38,30.86,10,44.33,6.63,10.14,18.25,15.89,30.33,15h0Z"/>
  </g>
</svg>