<?xml version="1.0" encoding="UTF-8"?>
<svg id="Layer_1" data-name="Layer 1" xmlns="http://www.w3.org/2000/svg" viewBox="0 0 115.28 122.88">
  <defs>
    <style>
      .cls-1 {
        fill: #1400c6;
        fill-rule: evenodd;
      }
    </style>
  </defs>
  <path class="cls-1" d="M25.38,57h64.88v-19.66h-20.67c-2.17,0-5.19-1.17-6.62-2.6-1.43-1.43-2.3-4.01-2.3-6.17V7.64H8.15c-.18,0-.32.09-.41.18-.15.1-.19.23-.19.42v106.45c0,.14.09.32.18.41.09.14.28.18.41.18h81.51c.18,0,.17-.09.27-.18.14-.09.33-.28.33-.41v-11.16H25.38c-4.14,0-7.56-3.4-7.56-7.56v-31.42c0-4.15,3.4-7.55,7.56-7.55h0ZM51.83,67.45h7.84v13.73c0,2.88-.25,5.08-.77,6.59-.51,1.5-1.54,2.78-3.09,3.83-1.55,1.04-3.53,1.57-5.95,1.57-2.55,0-4.53-.35-5.93-1.04-1.41-.69-2.49-1.7-3.26-3.03-.77-1.32-1.22-2.97-1.35-4.92l7.45-1.01c0,1.11.11,1.93.29,2.47s.49.97.94,1.31c.3.22.72.32,1.28.32.88,0,1.52-.32,1.93-.97s.61-1.74.61-3.28v-15.57h0ZM63.59,84.37l7.41-.47c.16,1.2.49,2.12.98,2.74.81,1.02,1.95,1.53,3.45,1.53,1.11,0,1.97-.26,2.57-.78.61-.52.91-1.13.91-1.82,0-.65-.28-1.24-.85-1.76-.57-.52-1.9-1-3.99-1.47-3.43-.77-5.86-1.79-7.32-3.07-1.47-1.27-2.21-2.9-2.21-4.87,0-1.29.38-2.52,1.13-3.67.75-1.16,1.88-2.07,3.4-2.73,1.51-.66,3.59-.99,6.22-.99,3.23,0,5.69.6,7.39,1.81,1.7,1.2,2.7,3.11,3.03,5.74l-7.36.44c-.19-1.15-.61-1.98-1.23-2.5-.63-.52-1.5-.78-2.6-.78-.91,0-1.6.19-2.05.58-.46.38-.69.85-.69,1.41,0,.4.19.76.56,1.08.36.34,1.23.64,2.61.93,3.41.74,5.86,1.48,7.33,2.24,1.48.75,2.55,1.68,3.23,2.8.67,1.11,1.01,2.36,1.01,3.74,0,1.62-.45,3.11-1.34,4.49-.9,1.37-2.15,2.41-3.76,3.11-1.61.71-3.63,1.06-6.08,1.06-4.3,0-7.28-.83-8.93-2.48-1.67-1.66-2.61-3.76-2.82-6.31h0ZM97.79,57h9.93c4.16,0,7.56,3.41,7.56,7.56v31.42c0,4.15-3.41,7.56-7.56,7.56h-9.93v13.55c0,1.61-.65,3.04-1.7,4.1-1.06,1.06-2.49,1.7-4.1,1.7H5.81c-1.61,0-3.04-.64-4.1-1.7S.01,118.7.01,117.09V5.85C.01,4.24.66,2.81,1.71,1.75,2.77.69,4.24.05,5.81.05h58.72c.13-.05.27-.05.41-.05.64,0,1.29.28,1.75.69h.09c.09.05.14.09.23.18l29.99,30.36c.51.51.88,1.2.88,1.98,0,.23-.05.41-.09.65v23.14h0ZM67.52,27.97V8.94l21.43,21.7h-18.76c-.74,0-1.38-.32-1.89-.78-.46-.46-.78-1.15-.78-1.89h0Z"/>
</svg>