<?xml version="1.0" encoding="UTF-8"?>
<svg id="Layer_1" data-name="Layer 1" xmlns="http://www.w3.org/2000/svg" viewBox="0 0 800 800">
  <defs>
    <style>
      .cls-1 {
        fill: none;
      }

      .cls-2 {
        fill: #1400c6;
      }
    </style>
  </defs>
  <path class="cls-2" d="M633.33,166.67v466.67H166.67V166.67h466.67M633.33,100H166.67c-36.82,0-66.67,29.85-66.67,66.67v466.67c0,36.82,29.85,66.67,66.67,66.67h466.67c36.82,0,66.67-29.85,66.67-66.67V166.67c0-36.82-29.85-66.67-66.67-66.67Z"/>
  <rect class="cls-1" width="800" height="800"/>
  <g>
    <path class="cls-2" d="M415.67,350.67c1.49,24.43-8.2,48.22-26.33,64.67-21.63,16.22-48.36,24.14-75.33,22.33h-23.67v93.33h-57v-262h85c25.78-1.77,51.38,5.54,72.33,20.67,17.39,15.32,26.63,37.88,25,61ZM290.33,392.33h18.33c13.53.95,26.99-2.56,38.33-10,8.62-7.37,13.31-18.34,12.67-29.67.88-10.67-3.03-21.17-10.67-28.67-9.63-7.01-21.46-10.32-33.33-9.33h-25.33v77.67Z"/>
    <path class="cls-2" d="M546.67,327c6.2-.78,12.47-.78,18.67,0l-4.33,51c-5.25-1.16-10.62-1.72-16-1.67-14.76-.94-29.32,3.84-40.67,13.33-10.04,9.88-15.38,23.59-14.67,37.67v102h-54.67v-200h41.33l8,33.33h2.67c5.98-11.03,14.71-20.33,25.33-27,10.34-6.22,22.28-9.24,34.33-8.67Z"/>
  </g>
</svg>