<?xml version="1.0" encoding="UTF-8"?>
<svg id="Layer_1" data-name="Layer 1" xmlns="http://www.w3.org/2000/svg" viewBox="0 0 800 800">
  <defs>
    <style>
      .cls-1 {
        fill: none;
      }

      .cls-2 {
        fill: #1400c6;
      }
    </style>
  </defs>
  <path class="cls-2" d="M633.33,166.67v466.67H166.67V166.67h466.67M633.33,100H166.67c-36.82,0-66.67,29.85-66.67,66.67v466.67c0,36.82,29.85,66.67,66.67,66.67h466.67c36.82,0,66.67-29.85,66.67-66.67V166.67c0-36.82-29.85-66.67-66.67-66.67Z"/>
  <rect class="cls-1" width="800" height="800"/>
  <g>
    <path class="cls-2" d="M403.67,349c1.45,24.5-8.37,48.32-26.67,64.67-21.5,16.22-48.13,24.15-75,22.33h-23.67v93h-55.67v-262.33h83.67c25.78-1.77,51.38,5.54,72.33,20.67,17.63,15.44,26.9,38.31,25,61.67ZM278.33,390.67h18c13.13.65,26.11-2.97,37-10.33,8.94-6.99,13.71-18.04,12.67-29.33.98-10.78-2.93-21.43-10.67-29-9.66-6.95-21.47-10.26-33.33-9.33h-23.67v78Z"/>
    <path class="cls-2" d="M577.33,469.67c.96,18.21-7,35.74-21.33,47-19.11,11.96-41.51,17.56-64,16-12.51.17-25.01-.83-37.33-3-9.96-1.78-19.69-4.69-29-8.67v-45c10.77,4.9,21.91,8.91,33.33,12,10.91,2.78,22.08,4.34,33.33,4.67,19.67,0,29.67-5.67,29.67-17,.16-3.95-1.28-7.8-4-10.67-3.93-3.7-8.43-6.74-13.33-9l-26-12c-11.81-4.6-23.01-10.65-33.33-18-6.64-4.88-12.01-11.28-15.67-18.67-3.54-8.32-5.24-17.3-5-26.33-.63-16.41,7.16-32,20.67-41.33,17.62-10.73,38.08-15.84,58.67-14.67,24.35.01,48.38,5.48,70.33,16l-16.33,39.33c-9.13-4.06-18.48-7.62-28-10.67-8.64-2.66-17.63-4-26.67-4-16.33,0-24.33,4.33-24.33,13,.28,5.33,3.31,10.12,8,12.67,10.55,6.43,21.72,11.79,33.33,16,11.74,4.61,22.93,10.54,33.33,17.67,6.76,4.98,12.25,11.49,16,19,4.59,7.81,7.23,16.62,7.67,25.67Z"/>
  </g>
</svg>