<?xml version="1.0" encoding="UTF-8"?>
<svg id="Layer_1" data-name="Layer 1" xmlns="http://www.w3.org/2000/svg" viewBox="0 0 800 800">
  <defs>
    <style>
      .cls-1 {
        fill: #1400c6;
      }
    </style>
  </defs>
  <path class="cls-1" d="M7.61,278.97s-19.49-14.2,3.9-33.15l54.48-49.24s15.59-16.58,32.07-2.13l502.72,384.72v184.48s-.24,28.97-37.02,25.77L7.61,278.97Z"/>
  <path class="cls-1" d="M137.18,397.89L7.61,516.96s-13.31,10.01,0,27.9l60.16,55.31s14.29,15.51,35.4-2.13l137.37-105.29-103.35-94.87Z"/>
  <path class="cls-1" d="M364.67,398.87l237.64-183.42-1.54-183.5s-10.15-40.05-44-19.2L240.53,303.68l124.14,95.19Z"/>
  <path class="cls-1" d="M563.74,789.67c13.8,14.28,30.53,9.6,30.53,9.6l185.2-92.24c23.71-16.33,20.38-36.6,20.38-36.6V119.6c0-24.21-24.52-32.58-24.52-32.58L614.8,8.81c-35.07-21.91-58.05,3.94-58.05,3.94,0,0,29.55-21.5,44,19.2v728.33c0,5.01-1.06,9.93-3.17,14.36-4.22,8.62-13.4,16.66-35.4,13.3l1.54,1.72Z"/>
</svg>